<?xml version="1.0" encoding="UTF-8"?>
<svg xmlns="http://www.w3.org/2000/svg" xmlns:xlink="http://www.w3.org/1999/xlink" width="95px" height="100px" viewBox="0 0 95 100" version="1.1">
<g id="surface1">
<path style=" stroke:none;fill-rule:nonzero;fill:rgb(0%,0%,0%);fill-opacity:1;" d="M 1.167969 0.109375 C 0.699219 0.273438 0.414062 0.53125 0.1875 0.984375 L -0.0234375 1.414062 L 0.109375 3.265625 C 1.984375 29.234375 8.644531 48.625 20.128906 61.5625 C 21.664062 63.289062 24.234375 65.757812 25.984375 67.195312 C 34.222656 73.945312 43.902344 77.703125 55.179688 78.515625 C 57.761719 78.703125 62.210938 78.601562 64.902344 78.28125 C 65.566406 78.203125 66.117188 78.148438 66.117188 78.148438 C 66.125 78.15625 66.09375 78.898438 66.054688 79.804688 C 65.519531 93.164062 65.332031 98.367188 65.386719 98.671875 C 65.503906 99.289062 66.109375 99.867188 66.75 99.96875 C 67.316406 100.046875 67.761719 99.882812 68.277344 99.382812 C 69.273438 98.429688 94.71875 70.492188 94.828125 70.234375 C 95.007812 69.8125 95.03125 69.421875 94.90625 69.046875 C 94.71875 68.515625 71.304688 32.367188 70.890625 31.976562 C 70.019531 31.164062 68.71875 31.460938 68.214844 32.59375 C 68.105469 32.851562 68.058594 33.921875 67.386719 51.226562 C 67.332031 52.609375 67.269531 53.757812 67.246094 53.78125 C 67.167969 53.859375 65.050781 54.21875 63.679688 54.382812 C 61.890625 54.59375 58.261719 54.671875 56.183594 54.539062 C 53.644531 54.375 50.808594 53.929688 48.394531 53.320312 C 47.375 53.054688 45.382812 52.476562 45.03125 52.335938 C 44.945312 52.304688 44.417969 52.109375 43.855469 51.90625 C 36.425781 49.226562 29.136719 44.109375 23.058594 37.320312 C 15.269531 28.609375 9.007812 17.335938 3.792969 2.625 C 3.480469 1.726562 3.128906 0.859375 3.027344 0.703125 C 2.796875 0.351562 2.132812 0 1.730469 0 C 1.574219 0.0078125 1.324219 0.0546875 1.167969 0.109375 Z M 1.167969 0.109375 "/>
</g>
</svg>
